<?xml version="1.0" encoding="utf-8"?>
<!-- Generator: Adobe Illustrator 16.0.0, SVG Export Plug-In . SVG Version: 6.00 Build 0)  -->
<!DOCTYPE svg PUBLIC "-//W3C//DTD SVG 1.1//EN" "http://www.w3.org/Graphics/SVG/1.1/DTD/svg11.dtd">
<svg version="1.1" id="圖層_1" xmlns="http://www.w3.org/2000/svg" xmlns:xlink="http://www.w3.org/1999/xlink" x="0px" y="0px"
	 width="320px" height="320px" viewBox="0 0 320 320" enable-background="new 0 0 320 320" xml:space="preserve">
<path fill="#4CC764" d="M320,160c0,88.365-71.635,160-160,160S0,248.365,0,160S71.635,0,160,0S320,71.635,320,160"/>
<path fill="#FFFFFF" d="M266.705,150.681c0-47.795-47.916-86.681-106.814-86.681c-58.893,0-106.813,38.886-106.813,86.681
	c0,42.851,38,78.734,89.331,85.52c3.478,0.752,8.213,2.294,9.41,5.267c1.076,2.699,0.704,6.931,0.346,9.658
	c0,0-1.254,7.537-1.525,9.144c-0.466,2.699-2.147,10.562,9.251,5.759c11.401-4.804,61.514-36.222,83.922-62.014h-0.004
	C259.288,187.037,266.705,169.81,266.705,150.681"/>
<path fill="#4CC764" d="M231.171,178.279c1.126,0,2.039-0.913,2.039-2.039v-7.575c0-1.121-0.918-2.039-2.039-2.039h-20.396v-7.867
	h20.396c1.126,0,2.039-0.914,2.039-2.04v-7.575c0-1.121-0.918-2.039-2.039-2.039h-20.396v-7.866h20.396
	c1.126,0,2.039-0.914,2.039-2.04v-7.575c0-1.121-0.918-2.039-2.039-2.039h-29.97h-0.04c-1.126,0-2.039,0.913-2.039,2.039v0.044
	v0.003v46.533v0.004v0.032c0,1.126,0.913,2.039,2.039,2.039h0.04H231.171z"/>
<path fill="#4CC764" d="M120.166,178.279c1.127,0,2.04-0.913,2.04-2.039v-7.575c0-1.121-0.918-2.039-2.04-2.039H99.771v-37.001
	c0-1.121-0.917-2.039-2.039-2.039h-7.575c-1.127,0-2.039,0.913-2.039,2.039v46.58v0.004v0.032c0,1.126,0.912,2.039,2.039,2.039h0.04
	H120.166z"/>
<path fill="#4CC764" d="M138.231,127.585h-7.575c-1.126,0-2.039,0.913-2.039,2.039v46.616c0,1.126,0.913,2.039,2.039,2.039h7.575
	c1.127,0,2.04-0.913,2.04-2.039v-46.616C140.271,128.498,139.358,127.585,138.231,127.585"/>
<path fill="#4CC764" d="M189.801,127.585h-7.575c-1.126,0-2.039,0.913-2.039,2.039v27.688l-21.328-28.803
	c-0.05-0.074-0.106-0.145-0.164-0.211c-0.004-0.005-0.009-0.01-0.014-0.015c-0.039-0.044-0.08-0.087-0.122-0.128
	c-0.013-0.011-0.027-0.022-0.039-0.034c-0.036-0.032-0.073-0.063-0.111-0.094c-0.018-0.013-0.036-0.027-0.055-0.041
	c-0.034-0.025-0.071-0.05-0.108-0.074c-0.02-0.014-0.041-0.025-0.062-0.038c-0.037-0.021-0.074-0.043-0.112-0.061
	c-0.022-0.012-0.043-0.022-0.066-0.033c-0.039-0.017-0.078-0.035-0.119-0.05c-0.022-0.009-0.044-0.017-0.066-0.025
	c-0.041-0.015-0.082-0.027-0.124-0.04c-0.024-0.007-0.048-0.013-0.072-0.018c-0.041-0.01-0.081-0.019-0.122-0.027
	c-0.028-0.005-0.057-0.009-0.086-0.013c-0.037-0.005-0.073-0.01-0.11-0.013c-0.036-0.003-0.072-0.005-0.11-0.006
	c-0.022,0-0.045-0.003-0.069-0.003h-7.533c-1.127,0-2.04,0.913-2.04,2.039v46.616c0,1.126,0.913,2.039,2.04,2.039h7.575
	c1.126,0,2.039-0.913,2.039-2.039v-27.678l21.354,28.838c0.147,0.208,0.327,0.379,0.526,0.514c0.008,0.006,0.016,0.012,0.022,0.017
	c0.042,0.027,0.085,0.054,0.128,0.078c0.021,0.012,0.039,0.021,0.061,0.032c0.032,0.017,0.064,0.033,0.099,0.048
	c0.033,0.016,0.066,0.029,0.101,0.043c0.021,0.009,0.043,0.017,0.064,0.023c0.046,0.017,0.092,0.033,0.141,0.045
	c0.01,0.003,0.02,0.006,0.029,0.008c0.17,0.045,0.349,0.071,0.533,0.071h7.533c1.126,0,2.039-0.913,2.039-2.039v-46.616
	C191.84,128.498,190.927,127.585,189.801,127.585"/>
</svg>
